<?xml version="1.0" encoding="UTF-8" standalone="no"?>
<!DOCTYPE svg PUBLIC "-//W3C//DTD SVG 1.1//EN" "http://www.w3.org/Graphics/SVG/1.1/DTD/svg11.dtd">
<svg width="100%" height="100%" viewBox="0 0 700 700" version="1.1" xmlns="http://www.w3.org/2000/svg" xmlns:xlink="http://www.w3.org/1999/xlink" xml:space="preserve" xmlns:serif="http://www.serif.com/" style="fill-rule:evenodd;clip-rule:evenodd;stroke-linejoin:round;stroke-miterlimit:2;">
    <g transform="matrix(1,0,0,1,-50,-50)">
        <path d="M750,200L750,600C750,682.787 682.787,750 600,750L200,750C117.213,750 50,682.787 50,600L50,200C50,117.213 117.213,50 200,50L600,50C682.787,50 750,117.213 750,200Z" style="fill:url(#_Radial1);"/>
        <path d="M750,200L750,600C750,682.787 682.787,750 600,750L200,750C117.213,750 50,682.787 50,600L50,200C50,117.213 117.213,50 200,50L600,50C682.787,50 750,117.213 750,200Z" style="fill:url(#_Radial2);"/>
        <path d="M750,200L750,600C750,682.787 682.787,750 600,750L200,750C117.213,750 50,682.787 50,600L50,200C50,117.213 117.213,50 200,50L600,50C682.787,50 750,117.213 750,200Z" style="fill:url(#_Radial3);"/>
        <path d="M575,262.5C575,283.21 558.21,300 537.5,300C516.79,300 500,283.21 500,262.5C500,241.789 516.79,225 537.5,225C558.21,225 575,241.789 575,262.5Z" style="fill:white;fill-rule:nonzero;"/>
        <path d="M400,525C469.035,525 525,469.035 525,400C525,330.965 469.035,275 400,275C330.965,275 275,330.965 275,400C275,469.035 330.965,525 400,525ZM400,475C441.423,475 475,441.423 475,400C475,358.578 441.423,325 400,325C358.578,325 325,358.578 325,400C325,441.423 358.578,475 400,475Z" style="fill:white;"/>
        <path d="M150,390C150,305.992 150,263.988 166.349,231.901C180.73,203.677 203.677,180.73 231.901,166.349C263.988,150 305.992,150 390,150L410,150C494.008,150 536.013,150 568.098,166.349C596.323,180.73 619.27,203.677 633.65,231.901C650,263.988 650,305.992 650,390L650,410C650,494.008 650,536.013 633.65,568.098C619.27,596.323 596.323,619.27 568.098,633.65C536.013,650 494.008,650 410,650L390,650C305.992,650 263.988,650 231.901,633.65C203.677,619.27 180.73,596.323 166.349,568.098C150,536.013 150,494.008 150,410L150,390ZM390,200L410,200C452.83,200 481.943,200.039 504.448,201.878C526.37,203.669 537.58,206.915 545.4,210.899C564.215,220.487 579.512,235.785 589.1,254.6C593.085,262.42 596.333,273.63 598.123,295.553C599.96,318.058 600,347.17 600,390L600,410C600,452.83 599.96,481.943 598.123,504.448C596.333,526.37 593.085,537.58 589.1,545.4C579.512,564.215 564.215,579.512 545.4,589.1C537.58,593.085 526.37,596.333 504.448,598.123C481.943,599.96 452.83,600 410,600L390,600C347.17,600 318.058,599.96 295.553,598.123C273.63,596.333 262.42,593.085 254.6,589.1C235.785,579.512 220.487,564.215 210.899,545.4C206.915,537.58 203.669,526.37 201.878,504.448C200.039,481.943 200,452.83 200,410L200,390C200,347.17 200.039,318.058 201.878,295.553C203.669,273.63 206.915,262.42 210.899,254.6C220.487,235.785 235.785,220.487 254.6,210.899C262.42,206.915 273.63,203.669 295.553,201.878C318.058,200.039 347.17,200 390,200Z" style="fill:white;"/>
    </g>
    <defs>
        <radialGradient id="_Radial1" cx="0" cy="0" r="1" gradientUnits="userSpaceOnUse" gradientTransform="matrix(362.5,-525,525,362.5,300,575)"><stop offset="0" style="stop-color:rgb(177,53,137);stop-opacity:1"/><stop offset="0.79" style="stop-color:rgb(198,47,148);stop-opacity:1"/><stop offset="1" style="stop-color:rgb(138,58,200);stop-opacity:1"/></radialGradient>
        <radialGradient id="_Radial2" cx="0" cy="0" r="1" gradientUnits="userSpaceOnUse" gradientTransform="matrix(237.5,-512.499,512.499,237.5,275,775)"><stop offset="0" style="stop-color:rgb(224,232,183);stop-opacity:1"/><stop offset="0.44" style="stop-color:rgb(251,138,46);stop-opacity:1"/><stop offset="0.71" style="stop-color:rgb(226,66,92);stop-opacity:1"/><stop offset="1" style="stop-color:rgb(226,66,92);stop-opacity:0"/></radialGradient>
        <radialGradient id="_Radial3" cx="0" cy="0" r="1" gradientUnits="userSpaceOnUse" gradientTransform="matrix(962.501,-137.5,29.4098,205.869,12.5,75)"><stop offset="0" style="stop-color:rgb(64,106,220);stop-opacity:1"/><stop offset="0.16" style="stop-color:rgb(64,106,220);stop-opacity:1"/><stop offset="0.47" style="stop-color:rgb(106,69,190);stop-opacity:1"/><stop offset="1" style="stop-color:rgb(106,69,190);stop-opacity:0"/></radialGradient>
    </defs>
</svg>
