<?xml version="1.0" encoding="UTF-8" standalone="no"?>
<!DOCTYPE svg PUBLIC "-//W3C//DTD SVG 1.1//EN" "http://www.w3.org/Graphics/SVG/1.1/DTD/svg11.dtd">
<svg width="100%" height="100%" viewBox="0 0 268 268" version="1.1" xmlns="http://www.w3.org/2000/svg" xmlns:xlink="http://www.w3.org/1999/xlink" xml:space="preserve" xmlns:serif="http://www.serif.com/" style="fill-rule:evenodd;clip-rule:evenodd;stroke-linejoin:round;stroke-miterlimit:2;">
    <g transform="matrix(1,0,0,1,-46.1197,-46.1197)">
        <g id="Layer_x0020_1">
            <clipPath id="_clip1">
                <rect x="44.409" y="44.409" width="270.236" height="271.181"/>
            </clipPath>
            <g clip-path="url(#_clip1)">
                <g id="_2991650028016">
                    <path d="M99.269,46.12L260.731,46.12C289.956,46.12 313.88,70.044 313.88,99.269L313.88,260.731C313.88,289.956 289.956,313.88 260.731,313.88L99.269,313.88C70.044,313.88 46.12,289.956 46.12,260.731L46.12,99.269C46.12,70.044 70.044,46.12 99.269,46.12Z" style="fill:rgb(29,24,25);"/>
                    <path d="M157.436,202.365C175.153,201.203 196.611,205.824 212.4,214.016C215.49,215.603 220.932,217.843 221.669,221.556C222.605,226.375 218.494,230.513 213.732,228.983C211.096,228.161 205.682,224.759 202.564,223.37C198.397,221.499 194.712,220.139 190.318,218.863C172.233,213.562 148.932,214.186 130.62,218.324C126.113,219.345 120.643,220.11 119.509,214.186C118.403,208.346 123.08,206.957 127.587,205.965C137.65,203.726 147.231,203.046 157.436,202.365ZM153.893,170.702C176.598,169.795 198.85,173.82 219.572,183.231C222.831,184.706 229.55,188.079 231.959,190.517C235.729,194.372 234.283,200.835 229.323,202.819C224.107,204.917 219.685,200.75 215.263,198.652C189.666,186.35 160.186,183.317 132.435,189.269C127.701,190.29 120.926,193.294 117.128,188.646C113.613,184.309 115.257,178.583 120.331,176.343C127.984,172.913 145.332,171.043 153.893,170.702ZM149.641,137.395C175.748,135.78 204.009,139.153 228.331,148.989C232.809,150.803 239.613,153.751 243.439,156.529C248.627,160.299 249.335,167.386 244.261,171.411C238.394,176.06 233.036,171.78 227.679,169.2C222.123,166.535 217.446,164.693 211.55,162.822C187.37,155.14 156.047,153.865 131.216,158.57C125.66,159.647 118.091,162.964 113.046,159.987C107.802,156.898 107.235,148.564 112.025,144.907C117.865,140.485 141.789,137.906 149.641,137.395ZM172.12,86.287C118.176,88.243 77.556,133.37 79.257,187.03C80.107,212.797 91.049,235.956 109.644,253.644C129.458,272.494 152.901,280.743 180.198,279.95C233.972,278.391 274.876,232.441 272.92,179.065C270.964,125.178 225.723,84.359 172.12,86.287Z" style="fill:white;fill-opacity:0.25;"/>
                    <path d="M161.348,199.247C179.036,198.085 200.494,202.706 216.283,210.898C219.373,212.513 224.816,214.724 225.553,218.438C226.488,223.257 222.378,227.395 217.616,225.893C214.98,225.043 209.594,221.641 206.476,220.252C202.309,218.381 198.595,217.02 194.23,215.745C176.145,210.444 152.816,211.068 134.532,215.206C129.997,216.227 124.554,216.992 123.42,211.068C122.315,205.228 126.964,203.839 131.471,202.847C141.534,200.608 151.115,199.928 161.348,199.247ZM157.776,167.584C180.51,166.677 202.734,170.731 223.455,180.113C226.715,181.616 233.433,184.961 235.843,187.398C239.641,191.254 238.195,197.717 233.235,199.701C228.019,201.798 223.597,197.631 219.175,195.534C193.55,183.231 164.069,180.198 136.346,186.151C131.584,187.172 124.838,190.205 121.011,185.528C117.496,181.219 119.169,175.465 124.214,173.225C131.896,169.795 149.216,167.924 157.776,167.584ZM153.553,134.277C179.66,132.661 207.893,136.035 232.214,145.871C236.693,147.685 243.496,150.633 247.351,153.411C252.51,157.181 253.219,164.268 248.145,168.293C242.306,172.942 236.92,168.661 231.591,166.082C226.006,163.417 221.329,161.575 215.433,159.704C191.282,152.022 159.959,150.746 135.128,155.48C129.543,156.529 122.003,159.846 116.929,156.869C111.713,153.78 111.118,145.446 115.909,141.789C121.748,137.367 145.701,134.787 153.553,134.277ZM176.031,83.169C122.06,85.124 81.439,130.252 83.169,183.912C83.991,209.679 94.932,232.838 113.556,250.526C133.37,269.376 156.784,277.625 184.082,276.831C237.855,275.272 278.787,229.323 276.831,175.946C274.847,122.06 229.606,81.241 176.031,83.169Z" style="fill:rgb(30,215,96);"/>
                    <path d="M254.863,68.031C275.216,68.031 291.827,84.898 291.827,105.506L291.827,260.617C291.827,281.225 275.216,298.091 254.863,298.091L267.137,298.091C287.461,298.091 304.101,281.225 304.101,260.617L304.101,93.061C304.101,72.454 287.461,55.587 267.137,55.587L101.849,55.587C81.496,55.587 64.857,72.454 64.857,93.061L64.857,105.506C64.857,84.898 81.496,68.031 101.849,68.031L254.863,68.031Z" style="fill:rgb(254,254,254);fill-opacity:0.31;"/>
                </g>
                <g transform="matrix(0.892388,0,0,0.88189,0,42.5197)">
                    <rect x="0" y="0" width="360" height="360" style="fill:none;"/>
                </g>
            </g>
        </g>
    </g>
</svg>
